<svg viewBox="0 0 430 126" xmlns="http://www.w3.org/2000/svg"><g fill="#fff"><path d="m429.85 48.29h-9.74v3.59c-3.46-2.82-7.66-4.4-12.28-4.4-10.8 0-19.45 8.79-19.45 20.95s8.74 20.95 19.62 20.95c5.03 0 9.06-1.74 12.11-4.31v3.78h9.89v-40.56zm-10.57 25.31c0 .9-.36 1.76-.98 2.39-2.22 2.24-5.16 3.61-8.66 3.61-5.77 0-10.55-4.55-10.55-11.17s4.7-11.1 10.38-11.1c3.79 0 7.17 1.66 9.81 4.72z"/><path d="m49 29.83s-1.77.56-1.77.56v6.71c0 3.37-2.21 6.42-5.37 7.42l-18.25 5.78v9.95s23.98-7.59 23.98-7.59c5.69-1.78 9.08-6.71 9.08-13.19v-4.45c0-3.04-3.47-6.52-7.68-5.18z"/><path d="m44.74 16.25c3.7-1.17 6.64-1.11 8.41-.9l-4.25-3.12c-1.96-1.43-7.93-4.76-15.3-2.4l-32.2 10.2 9.45 6.96 33.9-10.74z"/><path d="m62.49 56.45s5.99-5.46 5.99-17.19v-4.96c0-7.72-8.85-20.27-23.03-15.78l-33.64 10.65v62.64l9.44-2.99v-15.4l30.36-9.61c5.66-1.77 10.37 2.68 10.37 7.64v6.11c0 6.22-5.46 15.03-14.03 17.73l-46.55 14.74 9.44 6.96 41.94-13.28c8.85-2.83 18.65-10.46 18.65-26.65v-6.24c0-9.79-8.94-14.37-8.94-14.37zm-14.19-1.54-27.05 8.57v-27.35l27.03-8.56c5.64-1.77 10.75 2.76 10.75 7.44v4.45c0 7.79-4.24 13.41-10.73 15.46z"/><path d="m59.62 77.56v-6.1c0-3.45-3.31-6.65-7.31-5.38l-2.14.68v8.44c0 4.16-2.65 7.8-6.6 9.05l-34.12 10.81v-66.16s-9.45-6.95-9.45-6.95v86.04l47.24-14.96c7.41-2.35 12.38-9.89 12.38-15.47z"/><path d="m118.92 47.48c-4.28 0-8.16 1.38-11.45 3.78l.03-20.65-10.75 3.37v54.86h9.89v-3.72c3.05 2.57 7.09 4.31 12.12 4.31 10.87 0 19.61-8.7 19.61-20.95s-8.66-21-19.45-21zm-1.81 32.18c-3.49 0-6.43-1.37-8.66-3.61-.63-.64-.98-1.49-.98-2.39v-11.55c2.64-3.06 6.01-4.72 9.81-4.72 5.69 0 10.38 4.64 10.38 11.1s-4.78 11.18-10.55 11.18z"/><path d="m371.6 51.21c-3.3-2.4-7.25-3.74-11.46-3.74-10.8 0-19.45 8.79-19.45 20.96s8.73 20.95 19.61 20.95c5.03 0 9.06-1.74 12.11-4.31v3.77h9.89v-58.23s-10.71 3.37-10.71 3.37v17.23zm0 22.4c0 .9-.36 1.76-.99 2.39-2.23 2.24-5.16 3.61-8.66 3.61-5.77 0-10.55-4.55-10.55-11.18s4.7-11.1 10.38-11.1c3.79 0 7.17 1.66 9.81 4.72v11.55z"/><path d="m277.23 51.8c-3.46-2.82-7.66-4.31-12.28-4.31-10.8 0-19.45 8.69-19.45 20.86s8.73 21.07 19.61 21.07c5.03 0 9.06-1.87 12.11-4.44v3.85h9.89v-40.56h-9.89v3.51zm-.82 21.73c0 .9-.36 1.76-.98 2.39-2.22 2.24-5.17 3.61-8.66 3.61-5.77 0-10.55-4.55-10.55-11.17s4.7-11.1 10.39-11.1c3.79 0 7.17 1.66 9.81 4.72v11.55z"/><path d="m317.2 47.51c-4.45 0-8.73 1.65-11.95 4.39v-3.61h-9.89v40.56h10.71v-26.6c1.48-2.07 5.19-4.97 9.72-4.97 2.47 0 4.62.83 6.02 2.24 1.48 1.49 2.39 3.56 2.39 7.53v21.79h10.71v-20.8c0-6.87-1.4-11.17-4.04-14.32-3.22-3.89-8.24-6.21-13.68-6.21z"/><path d="m221.93 47.46c-4.61 0-8.82 1.49-12.28 4.31v-3.48h-9.89v57.9s10.72-3.37 10.72-3.37v-17.2c2.88 2.24 6.67 3.81 11.29 3.81 10.88 0 19.61-8.86 19.61-21.11s-8.66-20.86-19.45-20.86zm-1.82 32.03c-3.49 0-6.43-1.37-8.66-3.61-.63-.64-.98-1.49-.98-2.39v-11.55c2.64-3.06 6.02-4.72 9.81-4.72 5.69 0 10.38 4.64 10.38 11.09s-4.78 11.17-10.55 11.17z"/><path d="m144.68 48.29h10.71v40.56h-10.71z"/><path d="m150.04 30.61c-3.71 0-6.76 2.89-6.76 6.62s3.05 6.62 6.76 6.62 6.76-2.9 6.76-6.62-3.05-6.62-6.76-6.62z"/><path d="m186.53 80.16c-1.56 0-2.88-.42-3.71-1.25-.74-.74-1.07-2.07-1.07-4.22v-17.71h10.58v-8.69h-10.58v-12.28l-10.71 3.37v8.91s-9.02 0-9.02 0v8.69h9.02v17.88c0 4.97 1.15 8.03 3.13 10.35 2.8 3.23 6.92 4.22 10.8 4.22 3.46 0 6.31-.81 8.76-2.24l-3.54-7.78c-1.11.44-2.3.75-3.67.75z"/></g></svg>